<?xml version="1.0" encoding="UTF-8"?>
<!DOCTYPE svg PUBLIC "-//W3C//DTD SVG 1.1//EN" "http://www.w3.org/Graphics/SVG/1.1/DTD/svg11.dtd">
<svg version="1.2" width="500mm" height="500mm" viewBox="0 0 50000 50000" preserveAspectRatio="xMidYMid" fill-rule="evenodd" stroke-width="28.222" stroke-linejoin="round" xmlns="http://www.w3.org/2000/svg" xmlns:ooo="http://xml.openoffice.org/svg/export" xmlns:xlink="http://www.w3.org/1999/xlink" xmlns:presentation="http://sun.com/xmlns/staroffice/presentation" xmlns:smil="http://www.w3.org/2001/SMIL20/" xmlns:anim="urn:oasis:names:tc:opendocument:xmlns:animation:1.0" xml:space="preserve">
 <defs class="ClipPathGroup">
  <clipPath id="presentation_clip_path" clipPathUnits="userSpaceOnUse">
   <rect x="0" y="0" width="50000" height="50000"/>
  </clipPath>
 </defs>
 <defs class="TextShapeIndex">
  <g ooo:slide="id1" ooo:id-list="id3 id4 id5 id6 id7 id8 id9 id10 id11 id12 id13 id14 id15 id16 id17 id18 id19 id20 id21 id22 id23 id24 id25 id26 id27 id28 id29 id30 id31 id32 id33 id34 id35 id36 id37 id38 id39 id40 id41 id42 id43 id44 id45 id46 id47 id48 id49 id50 id51 id52"/>
 </defs>
 <defs class="EmbeddedBulletChars">
  <g id="bullet-char-template(57356)" transform="scale(0.00048828125,-0.00048828125)">
   <path d="M 580,1141 L 1163,571 580,0 -4,571 580,1141 Z"/>
  </g>
  <g id="bullet-char-template(57354)" transform="scale(0.00048828125,-0.00048828125)">
   <path d="M 8,1128 L 1137,1128 1137,0 8,0 8,1128 Z"/>
  </g>
  <g id="bullet-char-template(10146)" transform="scale(0.00048828125,-0.00048828125)">
   <path d="M 174,0 L 602,739 174,1481 1456,739 174,0 Z M 1358,739 L 309,1346 659,739 1358,739 Z"/>
  </g>
  <g id="bullet-char-template(10132)" transform="scale(0.00048828125,-0.00048828125)">
   <path d="M 2015,739 L 1276,0 717,0 1260,543 174,543 174,936 1260,936 717,1481 1274,1481 2015,739 Z"/>
  </g>
  <g id="bullet-char-template(10007)" transform="scale(0.00048828125,-0.00048828125)">
   <path d="M 0,-2 C -7,14 -16,27 -25,37 L 356,567 C 262,823 215,952 215,954 215,979 228,992 255,992 264,992 276,990 289,987 310,991 331,999 354,1012 L 381,999 492,748 772,1049 836,1024 860,1049 C 881,1039 901,1025 922,1006 886,937 835,863 770,784 769,783 710,716 594,584 L 774,223 C 774,196 753,168 711,139 L 727,119 C 717,90 699,76 672,76 641,76 570,178 457,381 L 164,-76 C 142,-110 111,-127 72,-127 30,-127 9,-110 8,-76 1,-67 -2,-52 -2,-32 -2,-23 -1,-13 0,-2 Z"/>
  </g>
  <g id="bullet-char-template(10004)" transform="scale(0.00048828125,-0.00048828125)">
   <path d="M 285,-33 C 182,-33 111,30 74,156 52,228 41,333 41,471 41,549 55,616 82,672 116,743 169,778 240,778 293,778 328,747 346,684 L 369,508 C 377,444 397,411 428,410 L 1163,1116 C 1174,1127 1196,1133 1229,1133 1271,1133 1292,1118 1292,1087 L 1292,965 C 1292,929 1282,901 1262,881 L 442,47 C 390,-6 338,-33 285,-33 Z"/>
  </g>
  <g id="bullet-char-template(9679)" transform="scale(0.00048828125,-0.00048828125)">
   <path d="M 813,0 C 632,0 489,54 383,161 276,268 223,411 223,592 223,773 276,916 383,1023 489,1130 632,1184 813,1184 992,1184 1136,1130 1245,1023 1353,916 1407,772 1407,592 1407,412 1353,268 1245,161 1136,54 992,0 813,0 Z"/>
  </g>
  <g id="bullet-char-template(8226)" transform="scale(0.00048828125,-0.00048828125)">
   <path d="M 346,457 C 273,457 209,483 155,535 101,586 74,649 74,723 74,796 101,859 155,911 209,963 273,989 346,989 419,989 480,963 531,910 582,859 608,796 608,723 608,648 583,586 532,535 482,483 420,457 346,457 Z"/>
  </g>
  <g id="bullet-char-template(8211)" transform="scale(0.00048828125,-0.00048828125)">
   <path d="M -4,459 L 1135,459 1135,606 -4,606 -4,459 Z"/>
  </g>
 </defs>
 <defs class="TextEmbeddedBitmaps"/>
 <g>
  <g id="id2" class="Master_Slide">
   <g id="bg-id2" class="Background"/>
   <g id="bo-id2" class="BackgroundObjects"/>
  </g>
 </g>
 <g class="SlideGroup">
  <g>
   <g id="id1" class="Slide" clip-path="url(#presentation_clip_path)">
    <g class="Page">
     <g class="com.sun.star.drawing.PolyPolygonShape">
      <g id="id3">
       <rect class="BoundingBox" stroke="none" fill="none" x="622" y="187" width="9030" height="13030"/>
      </g>
     </g>
     <g class="com.sun.star.drawing.PolyPolygonShape">
      <g id="id4">
       <rect class="BoundingBox" stroke="none" fill="none" x="622" y="188" width="9029" height="13027"/>
       <path fill="none" stroke="rgb(0,0,0)" stroke-width="25" stroke-linejoin="miter" d="M 635,201 L 1535,201 1535,526 2435,526 2435,201 3035,201 3035,526 3635,526 3635,201 4235,201 4235,526 4835,526 4835,201 5437,201 5437,526 6037,526 6037,201 6637,201 6637,526 7237,526 7237,201 7837,201 7837,526 8737,526 8737,201 9637,201 9637,1013 9337,1013 9337,1826 9637,1826 9637,2476 9337,2476 9337,3126 9637,3126 9637,3776 9337,3776 9337,4426 9637,4426 9637,5075 9337,5075 9337,5725 9637,5725 9637,6375 9337,6375 9337,7026 9637,7026 9637,7676 9337,7676 9337,8326 9637,8326 9637,8976 9337,8976 9337,9626 9637,9626 9637,10276 9337,10276 9337,10926 9637,10926 9637,11576 9337,11576 9337,12388 9637,12388 9637,13201 8737,13201 8737,12876 7837,12876 7837,13201 7237,13201 7237,12876 6637,12876 6637,13201 6037,13201 6037,12876 5437,12876 5437,13201 4835,13201 4835,12876 4235,12876 4235,13201 3635,13201 3635,12876 3035,12876 3035,13201 2435,13201 2435,12876 1535,12876 1535,13201 635,13201 635,12388 935,12388 935,11576 635,11576 635,10926 935,10926 935,10276 635,10276 635,9626 935,9626 935,8976 635,8976 635,8326 935,8326 935,7676 635,7676 635,7026 935,7026 935,6375 635,6375 635,5725 935,5725 935,5075 635,5075 635,4426 935,4426 935,3776 635,3776 635,3126 935,3126 935,2476 635,2476 635,1826 935,1826 935,1013 635,1013 635,201 Z"/>
      </g>
     </g>
     <g class="com.sun.star.drawing.PolyPolygonShape">
      <g id="id5">
       <rect class="BoundingBox" stroke="none" fill="none" x="9622" y="187" width="9030" height="13030"/>
      </g>
     </g>
     <g class="com.sun.star.drawing.PolyPolygonShape">
      <g id="id6">
       <rect class="BoundingBox" stroke="none" fill="none" x="9622" y="188" width="9029" height="13027"/>
       <path fill="none" stroke="rgb(0,0,0)" stroke-width="25" stroke-linejoin="miter" d="M 9635,201 L 10535,201 10535,526 11435,526 11435,201 12035,201 12035,526 12635,526 12635,201 13235,201 13235,526 13835,526 13835,201 14437,201 14437,526 15037,526 15037,201 15637,201 15637,526 16237,526 16237,201 16837,201 16837,526 17737,526 17737,201 18637,201 18637,1013 18337,1013 18337,1826 18637,1826 18637,2476 18337,2476 18337,3126 18637,3126 18637,3776 18337,3776 18337,4426 18637,4426 18637,5075 18337,5075 18337,5725 18637,5725 18637,6375 18337,6375 18337,7026 18637,7026 18637,7676 18337,7676 18337,8326 18637,8326 18637,8976 18337,8976 18337,9626 18637,9626 18637,10276 18337,10276 18337,10926 18637,10926 18637,11576 18337,11576 18337,12388 18637,12388 18637,13201 17737,13201 17737,12876 16837,12876 16837,13201 16237,13201 16237,12876 15637,12876 15637,13201 15037,13201 15037,12876 14437,12876 14437,13201 13835,13201 13835,12876 13235,12876 13235,13201 12635,13201 12635,12876 12035,12876 12035,13201 11435,13201 11435,12876 10535,12876 10535,13201 9635,13201 9635,12388 9935,12388 9935,11576 9635,11576 9635,10926 9935,10926 9935,10276 9635,10276 9635,9626 9935,9626 9935,8976 9635,8976 9635,8326 9935,8326 9935,7676 9635,7676 9635,7026 9935,7026 9935,6375 9635,6375 9635,5725 9935,5725 9935,5075 9635,5075 9635,4426 9935,4426 9935,3776 9635,3776 9635,3126 9935,3126 9935,2476 9635,2476 9635,1826 9935,1826 9935,1013 9635,1013 9635,201 Z"/>
      </g>
     </g>
     <g class="com.sun.star.drawing.PolyPolygonShape">
      <g id="id7">
       <rect class="BoundingBox" stroke="none" fill="none" x="18622" y="187" width="13030" height="13030"/>
      </g>
     </g>
     <g class="com.sun.star.drawing.PolyPolygonShape">
      <g id="id8">
       <rect class="BoundingBox" stroke="none" fill="none" x="18622" y="188" width="13029" height="13027"/>
       <path fill="none" stroke="rgb(0,0,0)" stroke-width="25" stroke-linejoin="miter" d="M 18935,201 L 19635,201 19635,526 20635,526 20635,201 21235,201 21235,526 21835,526 21835,201 22435,201 22435,526 23035,526 23035,201 23635,201 23635,526 24235,526 24235,201 24835,201 24835,526 25437,526 25437,201 26037,201 26037,526 26637,526 26637,201 27237,201 27237,526 27837,526 27837,201 28437,201 28437,526 29037,526 29037,201 29637,201 29637,526 30637,526 30637,201 31337,201 31337,1013 31637,1013 31637,1826 31337,1826 31337,2476 31637,2476 31637,3126 31337,3126 31337,3776 31637,3776 31637,4426 31337,4426 31337,5075 31637,5075 31637,5725 31337,5725 31337,6375 31637,6375 31637,7026 31337,7026 31337,7676 31637,7676 31637,8326 31337,8326 31337,8976 31637,8976 31637,9626 31337,9626 31337,10276 31637,10276 31637,10926 31337,10926 31337,11576 31637,11576 31637,12388 31337,12388 31337,13201 30637,13201 30637,12876 29637,12876 29637,13201 29037,13201 29037,12876 28437,12876 28437,13201 27837,13201 27837,12876 27237,12876 27237,13201 26637,13201 26637,12876 26037,12876 26037,13201 25437,13201 25437,12876 24835,12876 24835,13201 24235,13201 24235,12876 23635,12876 23635,13201 23035,13201 23035,12876 22435,12876 22435,13201 21835,13201 21835,12876 21235,12876 21235,13201 20635,13201 20635,12876 19635,12876 19635,13201 18935,13201 18935,12388 18635,12388 18635,11576 18935,11576 18935,10926 18635,10926 18635,10276 18935,10276 18935,9626 18635,9626 18635,8976 18935,8976 18935,8326 18635,8326 18635,7676 18935,7676 18935,7026 18635,7026 18635,6375 18935,6375 18935,5725 18635,5725 18635,5075 18935,5075 18935,4426 18635,4426 18635,3776 18935,3776 18935,3126 18635,3126 18635,2476 18935,2476 18935,1826 18635,1826 18635,1013 18935,1013 18935,201 Z"/>
      </g>
     </g>
     <g class="com.sun.star.drawing.PolyPolygonShape">
      <g id="id9">
       <rect class="BoundingBox" stroke="none" fill="none" x="18622" y="13201" width="13030" height="13030"/>
      </g>
     </g>
     <g class="com.sun.star.drawing.PolyPolygonShape">
      <g id="id10">
       <rect class="BoundingBox" stroke="none" fill="none" x="18622" y="13202" width="13029" height="13027"/>
       <path fill="none" stroke="rgb(0,0,0)" stroke-width="25" stroke-linejoin="miter" d="M 18935,13215 L 19635,13215 19635,13540 20635,13540 20635,13215 21235,13215 21235,13540 21835,13540 21835,13215 22435,13215 22435,13540 23035,13540 23035,13215 23635,13215 23635,13540 24235,13540 24235,13215 24835,13215 24835,13540 25437,13540 25437,13215 26037,13215 26037,13540 26637,13540 26637,13215 27237,13215 27237,13540 27837,13540 27837,13215 28437,13215 28437,13540 29037,13540 29037,13215 29637,13215 29637,13540 30637,13540 30637,13215 31337,13215 31337,14027 31637,14027 31637,14840 31337,14840 31337,15490 31637,15490 31637,16140 31337,16140 31337,16790 31637,16790 31637,17440 31337,17440 31337,18089 31637,18089 31637,18739 31337,18739 31337,19389 31637,19389 31637,20040 31337,20040 31337,20690 31637,20690 31637,21340 31337,21340 31337,21990 31637,21990 31637,22640 31337,22640 31337,23290 31637,23290 31637,23940 31337,23940 31337,24590 31637,24590 31637,25402 31337,25402 31337,26215 30637,26215 30637,25890 29637,25890 29637,26215 29037,26215 29037,25890 28437,25890 28437,26215 27837,26215 27837,25890 27237,25890 27237,26215 26637,26215 26637,25890 26037,25890 26037,26215 25437,26215 25437,25890 24835,25890 24835,26215 24235,26215 24235,25890 23635,25890 23635,26215 23035,26215 23035,25890 22435,25890 22435,26215 21835,26215 21835,25890 21235,25890 21235,26215 20635,26215 20635,25890 19635,25890 19635,26215 18935,26215 18935,25402 18635,25402 18635,24590 18935,24590 18935,23940 18635,23940 18635,23290 18935,23290 18935,22640 18635,22640 18635,21990 18935,21990 18935,21340 18635,21340 18635,20690 18935,20690 18935,20040 18635,20040 18635,19389 18935,19389 18935,18739 18635,18739 18635,18089 18935,18089 18935,17440 18635,17440 18635,16790 18935,16790 18935,16140 18635,16140 18635,15490 18935,15490 18935,14840 18635,14840 18635,14027 18935,14027 18935,13215 Z"/>
      </g>
     </g>
     <g class="com.sun.star.drawing.PolyPolygonShape">
      <g id="id11">
       <rect class="BoundingBox" stroke="none" fill="none" x="622" y="13186" width="9030" height="13030"/>
      </g>
     </g>
     <g class="com.sun.star.drawing.PolyPolygonShape">
      <g id="id12">
       <rect class="BoundingBox" stroke="none" fill="none" x="622" y="13186" width="9029" height="13029"/>
       <path fill="none" stroke="rgb(0,0,0)" stroke-width="25" stroke-linejoin="miter" d="M 935,13499 L 1535,13499 1535,13199 2435,13199 2435,13499 3035,13499 3035,13199 3635,13199 3635,13499 4235,13499 4235,13199 4835,13199 4835,13499 5437,13499 5437,13199 6037,13199 6037,13499 6637,13499 6637,13199 7237,13199 7237,13499 7837,13499 7837,13199 8737,13199 8737,13499 9337,13499 9337,14199 9637,14199 9637,15199 9337,15199 9337,15799 9637,15799 9637,16399 9337,16399 9337,16999 9637,16999 9637,17599 9337,17599 9337,18199 9637,18199 9637,18799 9337,18799 9337,19399 9637,19399 9637,20001 9337,20001 9337,20601 9637,20601 9637,21201 9337,21201 9337,21801 9637,21801 9637,22401 9337,22401 9337,23001 9637,23001 9637,23601 9337,23601 9337,24201 9637,24201 9637,25201 9337,25201 9337,25901 8737,25901 8737,26201 7837,26201 7837,25901 7237,25901 7237,26201 6637,26201 6637,25901 6037,25901 6037,26201 5437,26201 5437,25901 4835,25901 4835,26201 4235,26201 4235,25901 3635,25901 3635,26201 3035,26201 3035,25901 2435,25901 2435,26201 1535,26201 1535,25901 935,25901 935,25201 635,25201 635,24201 935,24201 935,23601 635,23601 635,23001 935,23001 935,22401 635,22401 635,21801 935,21801 935,21201 635,21201 635,20601 935,20601 935,20001 635,20001 635,19399 935,19399 935,18799 635,18799 635,18199 935,18199 935,17599 635,17599 635,16999 935,16999 935,16399 635,16399 635,15799 935,15799 935,15199 635,15199 635,14199 935,14199 935,13499 Z"/>
      </g>
     </g>
     <g class="com.sun.star.drawing.PolyPolygonShape">
      <g id="id13">
       <rect class="BoundingBox" stroke="none" fill="none" x="9622" y="13186" width="9030" height="13030"/>
      </g>
     </g>
     <g class="com.sun.star.drawing.PolyPolygonShape">
      <g id="id14">
       <rect class="BoundingBox" stroke="none" fill="none" x="9622" y="13186" width="9029" height="13029"/>
       <path fill="none" stroke="rgb(0,0,0)" stroke-width="25" stroke-linejoin="miter" d="M 9935,13499 L 10535,13499 10535,13199 11435,13199 11435,13499 12035,13499 12035,13199 12635,13199 12635,13499 13235,13499 13235,13199 13835,13199 13835,13499 14437,13499 14437,13199 15037,13199 15037,13499 15637,13499 15637,13199 16237,13199 16237,13499 16837,13499 16837,13199 17737,13199 17737,13499 18337,13499 18337,14199 18637,14199 18637,15199 18337,15199 18337,15799 18637,15799 18637,16399 18337,16399 18337,16999 18637,16999 18637,17599 18337,17599 18337,18199 18637,18199 18637,18799 18337,18799 18337,19399 18637,19399 18637,20001 18337,20001 18337,20601 18637,20601 18637,21201 18337,21201 18337,21801 18637,21801 18637,22401 18337,22401 18337,23001 18637,23001 18637,23601 18337,23601 18337,24201 18637,24201 18637,25201 18337,25201 18337,25901 17737,25901 17737,26201 16837,26201 16837,25901 16237,25901 16237,26201 15637,26201 15637,25901 15037,25901 15037,26201 14437,26201 14437,25901 13835,25901 13835,26201 13235,26201 13235,25901 12635,25901 12635,26201 12035,26201 12035,25901 11435,25901 11435,26201 10535,26201 10535,25901 9935,25901 9935,25201 9635,25201 9635,24201 9935,24201 9935,23601 9635,23601 9635,23001 9935,23001 9935,22401 9635,22401 9635,21801 9935,21801 9935,21201 9635,21201 9635,20601 9935,20601 9935,20001 9635,20001 9635,19399 9935,19399 9935,18799 9635,18799 9635,18199 9935,18199 9935,17599 9635,17599 9635,16999 9935,16999 9935,16399 9635,16399 9635,15799 9935,15799 9935,15199 9635,15199 9635,14199 9935,14199 9935,13499 Z"/>
      </g>
     </g>
     <g class="com.sun.star.drawing.PolyPolygonShape">
      <g id="id15">
       <rect class="BoundingBox" stroke="none" fill="none" x="11963" y="3483" width="4450" height="7444"/>
      </g>
     </g>
     <g class="com.sun.star.drawing.PolyPolygonShape">
      <g id="id16">
       <rect class="BoundingBox" stroke="none" fill="none" x="11950" y="3470" width="4475" height="7469"/>
       <path fill="none" stroke="rgb(17,17,17)" stroke-width="28" stroke-linejoin="round" d="M 14188,10924 L 11964,10924 11964,3484 16410,3484 16410,10924 14188,10924 Z"/>
      </g>
     </g>
     <g class="com.sun.star.drawing.PolyPolygonShape">
      <g id="id17">
       <rect class="BoundingBox" stroke="none" fill="none" x="21704" y="3416" width="5850" height="5699"/>
      </g>
     </g>
     <g class="com.sun.star.drawing.ClosedBezierShape">
      <g id="id18">
       <rect class="BoundingBox" stroke="none" fill="none" x="21691" y="3404" width="5873" height="5721"/>
       <path fill="none" stroke="rgb(17,17,17)" stroke-width="25" stroke-linejoin="round" d="M 24626,3417 C 26283,3417 27550,4649 27550,6264 27550,7878 26283,9111 24626,9111 22969,9111 21704,7878 21704,6264 21704,4649 22969,3417 24626,3417 Z"/>
      </g>
     </g>
     <g class="com.sun.star.drawing.PolyPolygonShape">
      <g id="id19">
       <rect class="BoundingBox" stroke="none" fill="none" x="21691" y="3404" width="27" height="27"/>
      </g>
     </g>
     <g class="com.sun.star.drawing.PolyPolygonShape">
      <g id="id20">
       <rect class="BoundingBox" stroke="none" fill="none" x="27537" y="9099" width="27" height="27"/>
      </g>
     </g>
     <g class="com.sun.star.drawing.PolyPolygonShape">
      <g id="id21">
       <rect class="BoundingBox" stroke="none" fill="none" x="1545" y="14427" width="7274" height="2304"/>
      </g>
     </g>
     <g class="com.sun.star.drawing.PolyPolygonShape">
      <g id="id22">
       <rect class="BoundingBox" stroke="none" fill="none" x="1530" y="14412" width="7303" height="2333"/>
       <path fill="none" stroke="rgb(17,17,17)" stroke-width="31" stroke-linejoin="round" d="M 5181,16728 L 1546,16728 1546,14428 8816,14428 8816,16728 5181,16728 Z"/>
      </g>
     </g>
     <g class="com.sun.star.drawing.PolyPolygonShape">
      <g id="id23">
       <rect class="BoundingBox" stroke="none" fill="none" x="2257" y="17715" width="5848" height="6990"/>
      </g>
     </g>
     <g class="com.sun.star.drawing.PolyPolygonShape">
      <g id="id24">
       <rect class="BoundingBox" stroke="none" fill="none" x="2245" y="17702" width="5872" height="7015"/>
       <path fill="none" stroke="rgb(17,17,17)" stroke-width="28" stroke-linejoin="round" d="M 5181,24702 L 2259,24702 2259,17716 8102,17716 8102,24702 5181,24702 Z"/>
      </g>
     </g>
     <g class="com.sun.star.drawing.PolyPolygonShape">
      <g id="id25">
       <rect class="BoundingBox" stroke="none" fill="none" x="16547" y="24029" width="1330" height="1290"/>
      </g>
     </g>
     <g class="com.sun.star.drawing.ClosedBezierShape">
      <g id="id26">
       <rect class="BoundingBox" stroke="none" fill="none" x="16888" y="24361" width="992" height="963"/>
       <path fill="none" stroke="rgb(17,17,17)" stroke-width="6" stroke-linejoin="round" d="M 17383,24364 C 17663,24364 17876,24571 17876,24841 17876,25112 17663,25319 17383,25319 17104,25319 16891,25112 16891,24841 16891,24571 17104,24364 17383,24364 Z"/>
      </g>
     </g>
     <g class="com.sun.star.drawing.PolyPolygonShape">
      <g id="id27">
       <rect class="BoundingBox" stroke="none" fill="none" x="16544" y="24027" width="7" height="7"/>
      </g>
     </g>
     <g class="com.sun.star.drawing.PolyPolygonShape">
      <g id="id28">
       <rect class="BoundingBox" stroke="none" fill="none" x="17572" y="25314" width="7" height="7"/>
      </g>
     </g>
     <g class="com.sun.star.drawing.CustomShape">
      <g id="id29">
       <rect class="BoundingBox" stroke="none" fill="none" x="32430" y="126" width="17275" height="19715"/>
       <path fill="none" stroke="rgb(0,0,0)" d="M 41067,19839 L 32431,19839 32431,127 49703,127 49703,19839 41067,19839 Z"/>
      </g>
     </g>
     <g class="com.sun.star.drawing.CustomShape">
      <g id="id30">
       <rect class="BoundingBox" stroke="none" fill="none" x="32427" y="19924" width="17275" height="10303"/>
       <path fill="none" stroke="rgb(0,0,0)" d="M 41064,30225 L 32428,30225 32428,19925 49700,19925 49700,30225 41064,30225 Z"/>
      </g>
     </g>
     <g class="com.sun.star.drawing.ClosedBezierShape">
      <g id="id31">
       <rect class="BoundingBox" stroke="none" fill="none" x="32791" y="412" width="292" height="327"/>
       <path fill="none" stroke="rgb(17,17,17)" stroke-width="6" stroke-linejoin="round" d="M 32936,415 C 33017,415 33079,484 33079,575 33079,666 33017,735 32936,735 32856,735 32794,666 32794,575 32794,484 32856,415 32936,415 Z"/>
      </g>
     </g>
     <g class="com.sun.star.drawing.ClosedBezierShape">
      <g id="id32">
       <rect class="BoundingBox" stroke="none" fill="none" x="49091" y="412" width="292" height="327"/>
       <path fill="none" stroke="rgb(17,17,17)" stroke-width="6" stroke-linejoin="round" d="M 49236,415 C 49317,415 49379,484 49379,575 49379,666 49317,735 49236,735 49156,735 49094,666 49094,575 49094,484 49156,415 49236,415 Z"/>
      </g>
     </g>
     <g class="com.sun.star.drawing.ClosedBezierShape">
      <g id="id33">
       <rect class="BoundingBox" stroke="none" fill="none" x="32791" y="9912" width="292" height="327"/>
       <path fill="none" stroke="rgb(17,17,17)" stroke-width="6" stroke-linejoin="round" d="M 32936,9915 C 33017,9915 33079,9984 33079,10075 33079,10166 33017,10235 32936,10235 32856,10235 32794,10166 32794,10075 32794,9984 32856,9915 32936,9915 Z"/>
      </g>
     </g>
     <g class="com.sun.star.drawing.ClosedBezierShape">
      <g id="id34">
       <rect class="BoundingBox" stroke="none" fill="none" x="49091" y="9912" width="292" height="327"/>
       <path fill="none" stroke="rgb(17,17,17)" stroke-width="6" stroke-linejoin="round" d="M 49236,9915 C 49317,9915 49379,9984 49379,10075 49379,10166 49317,10235 49236,10235 49156,10235 49094,10166 49094,10075 49094,9984 49156,9915 49236,9915 Z"/>
      </g>
     </g>
     <g class="com.sun.star.drawing.ClosedBezierShape">
      <g id="id35">
       <rect class="BoundingBox" stroke="none" fill="none" x="32791" y="19112" width="292" height="327"/>
       <path fill="none" stroke="rgb(17,17,17)" stroke-width="6" stroke-linejoin="round" d="M 32936,19115 C 33017,19115 33079,19184 33079,19275 33079,19366 33017,19435 32936,19435 32856,19435 32794,19366 32794,19275 32794,19184 32856,19115 32936,19115 Z"/>
      </g>
     </g>
     <g class="com.sun.star.drawing.ClosedBezierShape">
      <g id="id36">
       <rect class="BoundingBox" stroke="none" fill="none" x="49091" y="19112" width="292" height="327"/>
       <path fill="none" stroke="rgb(17,17,17)" stroke-width="6" stroke-linejoin="round" d="M 49236,19115 C 49317,19115 49379,19184 49379,19275 49379,19366 49317,19435 49236,19435 49156,19435 49094,19366 49094,19275 49094,19184 49156,19115 49236,19115 Z"/>
      </g>
     </g>
     <g class="com.sun.star.drawing.CustomShape">
      <g id="id37">
       <rect class="BoundingBox" stroke="none" fill="none" x="32430" y="30226" width="17275" height="19715"/>
       <path fill="none" stroke="rgb(0,0,0)" d="M 41067,49939 L 32431,49939 32431,30227 49703,30227 49703,49939 41067,49939 Z"/>
      </g>
     </g>
     <g class="com.sun.star.drawing.ClosedBezierShape">
      <g id="id38">
       <rect class="BoundingBox" stroke="none" fill="none" x="32491" y="30512" width="293" height="327"/>
       <path fill="none" stroke="rgb(17,17,17)" stroke-width="6" stroke-linejoin="round" d="M 32636,30515 C 32717,30515 32779,30584 32779,30675 32779,30766 32717,30835 32636,30835 32556,30835 32494,30766 32494,30675 32494,30584 32556,30515 32636,30515 Z"/>
      </g>
     </g>
     <g class="com.sun.star.drawing.ClosedBezierShape">
      <g id="id39">
       <rect class="BoundingBox" stroke="none" fill="none" x="49091" y="30512" width="292" height="327"/>
       <path fill="none" stroke="rgb(17,17,17)" stroke-width="6" stroke-linejoin="round" d="M 49236,30515 C 49317,30515 49379,30584 49379,30675 49379,30766 49317,30835 49236,30835 49156,30835 49094,30766 49094,30675 49094,30584 49156,30515 49236,30515 Z"/>
      </g>
     </g>
     <g class="com.sun.star.drawing.ClosedBezierShape">
      <g id="id40">
       <rect class="BoundingBox" stroke="none" fill="none" x="32491" y="40012" width="293" height="327"/>
       <path fill="none" stroke="rgb(17,17,17)" stroke-width="6" stroke-linejoin="round" d="M 32636,40015 C 32717,40015 32779,40084 32779,40175 32779,40266 32717,40335 32636,40335 32556,40335 32494,40266 32494,40175 32494,40084 32556,40015 32636,40015 Z"/>
      </g>
     </g>
     <g class="com.sun.star.drawing.ClosedBezierShape">
      <g id="id41">
       <rect class="BoundingBox" stroke="none" fill="none" x="49091" y="40012" width="292" height="327"/>
       <path fill="none" stroke="rgb(17,17,17)" stroke-width="6" stroke-linejoin="round" d="M 49236,40015 C 49317,40015 49379,40084 49379,40175 49379,40266 49317,40335 49236,40335 49156,40335 49094,40266 49094,40175 49094,40084 49156,40015 49236,40015 Z"/>
      </g>
     </g>
     <g class="com.sun.star.drawing.ClosedBezierShape">
      <g id="id42">
       <rect class="BoundingBox" stroke="none" fill="none" x="32791" y="49212" width="292" height="327"/>
       <path fill="none" stroke="rgb(17,17,17)" stroke-width="6" stroke-linejoin="round" d="M 32936,49215 C 33017,49215 33079,49284 33079,49375 33079,49466 33017,49535 32936,49535 32856,49535 32794,49466 32794,49375 32794,49284 32856,49215 32936,49215 Z"/>
      </g>
     </g>
     <g class="com.sun.star.drawing.ClosedBezierShape">
      <g id="id43">
       <rect class="BoundingBox" stroke="none" fill="none" x="49091" y="49212" width="292" height="327"/>
       <path fill="none" stroke="rgb(17,17,17)" stroke-width="6" stroke-linejoin="round" d="M 49236,49215 C 49317,49215 49379,49284 49379,49375 49379,49466 49317,49535 49236,49535 49156,49535 49094,49466 49094,49375 49094,49284 49156,49215 49236,49215 Z"/>
      </g>
     </g>
     <g class="com.sun.star.drawing.ClosedBezierShape">
      <g id="id44">
       <rect class="BoundingBox" stroke="none" fill="none" x="32791" y="20112" width="292" height="327"/>
       <path fill="none" stroke="rgb(17,17,17)" stroke-width="6" stroke-linejoin="round" d="M 32936,20115 C 33017,20115 33079,20184 33079,20275 33079,20366 33017,20435 32936,20435 32856,20435 32794,20366 32794,20275 32794,20184 32856,20115 32936,20115 Z"/>
      </g>
     </g>
     <g class="com.sun.star.drawing.ClosedBezierShape">
      <g id="id45">
       <rect class="BoundingBox" stroke="none" fill="none" x="49091" y="20112" width="292" height="327"/>
       <path fill="none" stroke="rgb(17,17,17)" stroke-width="6" stroke-linejoin="round" d="M 49236,20115 C 49317,20115 49379,20184 49379,20275 49379,20366 49317,20435 49236,20435 49156,20435 49094,20366 49094,20275 49094,20184 49156,20115 49236,20115 Z"/>
      </g>
     </g>
     <g class="com.sun.star.drawing.ClosedBezierShape">
      <g id="id46">
       <rect class="BoundingBox" stroke="none" fill="none" x="32491" y="29612" width="293" height="327"/>
       <path fill="none" stroke="rgb(17,17,17)" stroke-width="6" stroke-linejoin="round" d="M 32636,29615 C 32717,29615 32779,29684 32779,29775 32779,29866 32717,29935 32636,29935 32556,29935 32494,29866 32494,29775 32494,29684 32556,29615 32636,29615 Z"/>
      </g>
     </g>
     <g class="com.sun.star.drawing.ClosedBezierShape">
      <g id="id47">
       <rect class="BoundingBox" stroke="none" fill="none" x="49091" y="29612" width="292" height="327"/>
       <path fill="none" stroke="rgb(17,17,17)" stroke-width="6" stroke-linejoin="round" d="M 49236,29615 C 49317,29615 49379,29684 49379,29775 49379,29866 49317,29935 49236,29935 49156,29935 49094,29866 49094,29775 49094,29684 49156,29615 49236,29615 Z"/>
      </g>
     </g>
     <g class="com.sun.star.drawing.PolyPolygonShape">
      <g id="id48">
       <rect class="BoundingBox" stroke="none" fill="none" x="16223" y="26523" width="16028" height="6528"/>
       <path fill="none" stroke="rgb(0,0,0)" stroke-width="25" stroke-linejoin="miter" d="M 16236,26536 L 16736,26536 16736,26836 17236,26836 17236,26536 17636,26536 17636,26836 18036,26836 18036,26536 18436,26536 18436,26836 18836,26836 18836,26536 19236,26536 19236,26836 19636,26836 19636,26536 20036,26536 20036,26836 20436,26836 20436,26536 20836,26536 20836,26836 21236,26836 21236,26536 21636,26536 21636,26836 22036,26836 22036,26536 22436,26536 22436,26836 22836,26836 22836,26536 23236,26536 23236,26836 23636,26836 23636,26536 24036,26536 24036,26836 24437,26836 24437,26536 24837,26536 24837,26836 25237,26836 25237,26536 25637,26536 25637,26836 26037,26836 26037,26536 26437,26536 26437,26836 26837,26836 26837,26536 27237,26536 27237,26836 27637,26836 27637,26536 28037,26536 28037,26836 28437,26836 28437,26536 28837,26536 28837,26836 29237,26836 29237,26536 29637,26536 29637,26836 30037,26836 30037,26536 30437,26536 30437,26836 30837,26836 30837,26536 31237,26536 31237,26836 31737,26836 31737,26536 32237,26536 32237,27061 31937,27061 31937,27586 32237,27586 32237,27986 31937,27986 31937,28386 32237,28386 32237,28786 31937,28786 31937,29186 32237,29186 32237,29586 31937,29586 31937,29987 32237,29987 32237,30387 31937,30387 31937,30787 32237,30787 32237,31187 31937,31187 31937,31587 32237,31587 32237,31987 31937,31987 31937,32512 32237,32512 32237,33037 31737,33037 31737,32737 31237,32737 31237,33037 30837,33037 30837,32737 30437,32737 30437,33037 30037,33037 30037,32737 29637,32737 29637,33037 29237,33037 29237,32737 28837,32737 28837,33037 28437,33037 28437,32737 28037,32737 28037,33037 27637,33037 27637,32737 27237,32737 27237,33037 26837,33037 26837,32737 26437,32737 26437,33037 26037,33037 26037,32737 25637,32737 25637,33037 25237,33037 25237,32737 24837,32737 24837,33037 24437,33037 24437,32737 24036,32737 24036,33037 23636,33037 23636,32737 23236,32737 23236,33037 22836,33037 22836,32737 22436,32737 22436,33037 22036,33037 22036,32737 21636,32737 21636,33037 21236,33037 21236,32737 20836,32737 20836,33037 20436,33037 20436,32737 20036,32737 20036,33037 19636,33037 19636,32737 19236,32737 19236,33037 18836,33037 18836,32737 18436,32737 18436,33037 18036,33037 18036,32737 17636,32737 17636,33037 17236,33037 17236,32737 16736,32737 16736,33037 16236,33037 16236,32512 16536,32512 16536,31987 16236,31987 16236,31587 16536,31587 16536,31187 16236,31187 16236,30787 16536,30787 16536,30387 16236,30387 16236,29987 16536,29987 16536,29586 16236,29586 16236,29186 16536,29186 16536,28786 16236,28786 16236,28386 16536,28386 16536,27986 16236,27986 16236,27586 16536,27586 16536,27061 16236,27061 16236,26536 Z"/>
      </g>
     </g>
     <g class="com.sun.star.drawing.PolyPolygonShape">
      <g id="id49">
       <rect class="BoundingBox" stroke="none" fill="none" x="9642" y="31184" width="6550" height="2396"/>
       <path fill="none" stroke="rgb(0,0,0)" stroke-width="25" stroke-linejoin="miter" d="M 16177,31572 L 16175,31732 15875,31728 15870,32188 16170,32192 16164,32653 15864,32649 15858,33109 16158,33113 16156,33273 15631,33266 15627,33566 15102,33560 15106,33260 14706,33255 14702,33555 14302,33550 14306,33250 13906,33244 13902,33544 13502,33539 13506,33239 13106,33234 13103,33534 12702,33529 12705,33229 12305,33224 12302,33524 11902,33519 11905,33219 11505,33214 11502,33514 11102,33509 11105,33209 10705,33204 10702,33504 10177,33498 10181,33198 9656,33191 9658,33031 9958,33035 9963,32575 9663,32571 9669,32110 9969,32114 9975,31654 9675,31650 9677,31490 10202,31497 10206,31197 10731,31203 10727,31503 11127,31508 11131,31208 11531,31213 11527,31513 11927,31518 11931,31219 12330,31224 12327,31524 12727,31529 12730,31229 13131,31234 13128,31534 13528,31539 13531,31239 13931,31244 13928,31544 14328,31549 14331,31249 14731,31254 14728,31554 15128,31559 15131,31259 15656,31265 15652,31565 16177,31572 Z"/>
      </g>
     </g>
     <g class="com.sun.star.drawing.PolyPolygonShape">
      <g id="id50">
       <rect class="BoundingBox" stroke="none" fill="none" x="2892" y="31174" width="6536" height="2352"/>
       <path fill="none" stroke="rgb(0,0,0)" stroke-width="25" stroke-linejoin="miter" d="M 9414,31513 L 9413,31673 9113,31672 9111,32132 9411,32133 9409,32594 9109,32593 9107,33053 9407,33054 9406,33214 8881,33212 8880,33512 8355,33510 8356,33210 7956,33208 7955,33508 7555,33506 7556,33206 7156,33204 7155,33504 6755,33503 6756,33203 6356,33201 6355,33501 5954,33499 5955,33199 5555,33197 5554,33497 5154,33496 5155,33196 4755,33194 4754,33494 4354,33492 4355,33192 3955,33190 3954,33490 3429,33488 3430,33188 2905,33186 2906,33026 3206,33027 3208,32567 2908,32566 2910,32105 3210,32106 3212,31646 2912,31645 2913,31485 3438,31487 3439,31187 3964,31189 3963,31489 4363,31491 4364,31191 4764,31193 4763,31493 5163,31495 5164,31195 5564,31196 5563,31496 5963,31498 5964,31198 6365,31200 6364,31500 6764,31502 6765,31202 7165,31203 7164,31503 7564,31505 7565,31205 7965,31207 7964,31507 8364,31509 8365,31209 8890,31211 8889,31511 9414,31513 Z"/>
      </g>
     </g>
     <g class="com.sun.star.drawing.PolyPolygonShape">
      <g id="id51">
       <rect class="BoundingBox" stroke="none" fill="none" x="223" y="26423" width="16028" height="2328"/>
       <path fill="none" stroke="rgb(0,0,0)" stroke-width="25" stroke-linejoin="miter" d="M 536,26736 L 736,26736 736,26436 1236,26436 1236,26736 1636,26736 1636,26436 2036,26436 2036,26736 2436,26736 2436,26436 2836,26436 2836,26736 3236,26736 3236,26436 3636,26436 3636,26736 4036,26736 4036,26436 4436,26436 4436,26736 4836,26736 4836,26436 5236,26436 5236,26736 5636,26736 5636,26436 6036,26436 6036,26736 6436,26736 6436,26436 6836,26436 6836,26736 7236,26736 7236,26436 7636,26436 7636,26736 8036,26736 8036,26436 8437,26436 8437,26736 8837,26736 8837,26436 9237,26436 9237,26736 9637,26736 9637,26436 10037,26436 10037,26736 10437,26736 10437,26436 10837,26436 10837,26736 11237,26736 11237,26436 11637,26436 11637,26736 12037,26736 12037,26436 12437,26436 12437,26736 12837,26736 12837,26436 13237,26436 13237,26736 13637,26736 13637,26436 14037,26436 14037,26736 14437,26736 14437,26436 14837,26436 14837,26736 15237,26736 15237,26436 15737,26436 15737,26736 15937,26736 15937,26896 16237,26896 16237,27356 15937,27356 15937,27817 16237,27817 16237,28277 15937,28277 15937,28437 15737,28437 15737,28737 15237,28737 15237,28437 14837,28437 14837,28737 14437,28737 14437,28437 14037,28437 14037,28737 13637,28737 13637,28437 13237,28437 13237,28737 12837,28737 12837,28437 12437,28437 12437,28737 12037,28737 12037,28437 11637,28437 11637,28737 11237,28737 11237,28437 10837,28437 10837,28737 10437,28737 10437,28437 10037,28437 10037,28737 9637,28737 9637,28437 9237,28437 9237,28737 8837,28737 8837,28437 8437,28437 8437,28737 8036,28737 8036,28437 7636,28437 7636,28737 7236,28737 7236,28437 6836,28437 6836,28737 6436,28737 6436,28437 6036,28437 6036,28737 5636,28737 5636,28437 5236,28437 5236,28737 4836,28737 4836,28437 4436,28437 4436,28737 4036,28737 4036,28437 3636,28437 3636,28737 3236,28737 3236,28437 2836,28437 2836,28737 2436,28737 2436,28437 2036,28437 2036,28737 1636,28737 1636,28437 1236,28437 1236,28737 736,28737 736,28437 536,28437 536,28277 236,28277 236,27817 536,27817 536,27356 236,27356 236,26896 536,26896 536,26736 Z"/>
      </g>
     </g>
     <g class="com.sun.star.drawing.PolyPolygonShape">
      <g id="id52">
       <rect class="BoundingBox" stroke="none" fill="none" x="223" y="28823" width="16028" height="2328"/>
       <path fill="none" stroke="rgb(0,0,0)" stroke-width="25" stroke-linejoin="miter" d="M 536,29136 L 736,29136 736,28836 1236,28836 1236,29136 1636,29136 1636,28836 2036,28836 2036,29136 2436,29136 2436,28836 2836,28836 2836,29136 3236,29136 3236,28836 3636,28836 3636,29136 4036,29136 4036,28836 4436,28836 4436,29136 4836,29136 4836,28836 5236,28836 5236,29136 5636,29136 5636,28836 6036,28836 6036,29136 6436,29136 6436,28836 6836,28836 6836,29136 7236,29136 7236,28836 7636,28836 7636,29136 8036,29136 8036,28836 8437,28836 8437,29136 8837,29136 8837,28836 9237,28836 9237,29136 9637,29136 9637,28836 10037,28836 10037,29136 10437,29136 10437,28836 10837,28836 10837,29136 11237,29136 11237,28836 11637,28836 11637,29136 12037,29136 12037,28836 12437,28836 12437,29136 12837,29136 12837,28836 13237,28836 13237,29136 13637,29136 13637,28836 14037,28836 14037,29136 14437,29136 14437,28836 14837,28836 14837,29136 15237,29136 15237,28836 15737,28836 15737,29136 15937,29136 15937,29296 16237,29296 16237,29756 15937,29756 15937,30217 16237,30217 16237,30677 15937,30677 15937,30837 15737,30837 15737,31137 15237,31137 15237,30837 14837,30837 14837,31137 14437,31137 14437,30837 14037,30837 14037,31137 13637,31137 13637,30837 13237,30837 13237,31137 12837,31137 12837,30837 12437,30837 12437,31137 12037,31137 12037,30837 11637,30837 11637,31137 11237,31137 11237,30837 10837,30837 10837,31137 10437,31137 10437,30837 10037,30837 10037,31137 9637,31137 9637,30837 9237,30837 9237,31137 8837,31137 8837,30837 8437,30837 8437,31137 8036,31137 8036,30837 7636,30837 7636,31137 7236,31137 7236,30837 6836,30837 6836,31137 6436,31137 6436,30837 6036,30837 6036,31137 5636,31137 5636,30837 5236,30837 5236,31137 4836,31137 4836,30837 4436,30837 4436,31137 4036,31137 4036,30837 3636,30837 3636,31137 3236,31137 3236,30837 2836,30837 2836,31137 2436,31137 2436,30837 2036,30837 2036,31137 1636,31137 1636,30837 1236,30837 1236,31137 736,31137 736,30837 536,30837 536,30677 236,30677 236,30217 536,30217 536,29756 236,29756 236,29296 536,29296 536,29136 Z"/>
      </g>
     </g>
    </g>
   </g>
  </g>
 </g>
</svg>